<svg xmlns="http://www.w3.org/2000/svg"  viewBox="0 0 64 64" width="512px" height="512px"><linearGradient id="my3~0alKn8cYVsc_VJBgHa" x1="41" x2="41" y1="25.5" y2="36.571" gradientUnits="userSpaceOnUse" spreadMethod="reflect"><stop offset="0" stop-color="#6dc7ff"/><stop offset="1" stop-color="#e6abff"/></linearGradient><path fill="url(#my3~0alKn8cYVsc_VJBgHa)" d="M38,36h6c0.552,0,1-0.448,1-1v-8c0-0.552-0.448-1-1-1h-6c-0.552,0-1,0.448-1,1v8 C37,35.552,37.448,36,38,36z"/><linearGradient id="my3~0alKn8cYVsc_VJBgHb" x1="32" x2="32" y1="5.75" y2="57.868" gradientUnits="userSpaceOnUse" spreadMethod="reflect"><stop offset="0" stop-color="#1a6dff"/><stop offset="1" stop-color="#c822ff"/></linearGradient><path fill="url(#my3~0alKn8cYVsc_VJBgHb)" d="M49,10h-2c0-1.103-0.897-2-2-2h-8c0-1.103-0.897-2-2-2h-6c-1.103,0-2,0.897-2,2h-8 c-1.103,0-2,0.897-2,2h-2c-1.103,0-2,0.897-2,2v44c0,1.103,0.897,2,2,2h34c1.103,0,2-0.897,2-2V12C51,10.897,50.103,10,49,10z M29,8 h6v5c0,1.654-1.346,3-3,3s-3-1.346-3-3V8z M15,12h12v1c0,2.757,2.243,5,5,5s5-2.243,5-5v-1h12v32H39c-1.103,0-2,0.897-2,2v10H15V12z M39,56V46h10v10H39z"/><linearGradient id="my3~0alKn8cYVsc_VJBgHc" x1="32" x2="32" y1="5.75" y2="57.868" gradientUnits="userSpaceOnUse" spreadMethod="reflect"><stop offset="0" stop-color="#1a6dff"/><stop offset="1" stop-color="#c822ff"/></linearGradient><path fill="url(#my3~0alKn8cYVsc_VJBgHc)" d="M19 22H45V24H19z"/><linearGradient id="my3~0alKn8cYVsc_VJBgHd" x1="26" x2="26" y1="5.75" y2="57.868" gradientUnits="userSpaceOnUse" spreadMethod="reflect"><stop offset="0" stop-color="#1a6dff"/><stop offset="1" stop-color="#c822ff"/></linearGradient><path fill="url(#my3~0alKn8cYVsc_VJBgHd)" d="M19 26H33V28H19z"/><linearGradient id="my3~0alKn8cYVsc_VJBgHe" x1="26" x2="26" y1="5.75" y2="57.868" gradientUnits="userSpaceOnUse" spreadMethod="reflect"><stop offset="0" stop-color="#1a6dff"/><stop offset="1" stop-color="#c822ff"/></linearGradient><path fill="url(#my3~0alKn8cYVsc_VJBgHe)" d="M19 30H33V32H19z"/><linearGradient id="my3~0alKn8cYVsc_VJBgHf" x1="26" x2="26" y1="5.75" y2="57.868" gradientUnits="userSpaceOnUse" spreadMethod="reflect"><stop offset="0" stop-color="#1a6dff"/><stop offset="1" stop-color="#c822ff"/></linearGradient><path fill="url(#my3~0alKn8cYVsc_VJBgHf)" d="M19 34H33V36H19z"/><linearGradient id="my3~0alKn8cYVsc_VJBgHg" x1="41" x2="41" y1="5.75" y2="57.868" gradientUnits="userSpaceOnUse" spreadMethod="reflect"><stop offset="0" stop-color="#1a6dff"/><stop offset="1" stop-color="#c822ff"/></linearGradient><path fill="url(#my3~0alKn8cYVsc_VJBgHg)" d="M37 38H45V40H37z"/><linearGradient id="my3~0alKn8cYVsc_VJBgHh" x1="20" x2="20" y1="5.75" y2="57.868" gradientUnits="userSpaceOnUse" spreadMethod="reflect"><stop offset="0" stop-color="#1a6dff"/><stop offset="1" stop-color="#c822ff"/></linearGradient><path fill="url(#my3~0alKn8cYVsc_VJBgHh)" d="M19 48H21V52H19z"/><linearGradient id="my3~0alKn8cYVsc_VJBgHi" x1="24" x2="24" y1="5.75" y2="57.868" gradientUnits="userSpaceOnUse" spreadMethod="reflect"><stop offset="0" stop-color="#1a6dff"/><stop offset="1" stop-color="#c822ff"/></linearGradient><path fill="url(#my3~0alKn8cYVsc_VJBgHi)" d="M23 48H25V52H23z"/><linearGradient id="my3~0alKn8cYVsc_VJBgHj" x1="28" x2="28" y1="5.75" y2="57.868" gradientUnits="userSpaceOnUse" spreadMethod="reflect"><stop offset="0" stop-color="#1a6dff"/><stop offset="1" stop-color="#c822ff"/></linearGradient><path fill="url(#my3~0alKn8cYVsc_VJBgHj)" d="M27 48H29V52H27z"/><linearGradient id="my3~0alKn8cYVsc_VJBgHk" x1="32" x2="32" y1="5.75" y2="57.868" gradientUnits="userSpaceOnUse" spreadMethod="reflect"><stop offset="0" stop-color="#1a6dff"/><stop offset="1" stop-color="#c822ff"/></linearGradient><path fill="url(#my3~0alKn8cYVsc_VJBgHk)" d="M31 48H33V52H31z"/><linearGradient id="my3~0alKn8cYVsc_VJBgHl" x1="43" x2="43" y1="5.75" y2="57.868" gradientUnits="userSpaceOnUse" spreadMethod="reflect"><stop offset="0" stop-color="#1a6dff"/><stop offset="1" stop-color="#c822ff"/></linearGradient><path fill="url(#my3~0alKn8cYVsc_VJBgHl)" d="M41,50v2h2v-2h2v-2h-2C41.897,48,41,48.897,41,50z"/><linearGradient id="my3~0alKn8cYVsc_VJBgHm" x1="26" x2="26" y1="5.75" y2="57.868" gradientUnits="userSpaceOnUse" spreadMethod="reflect"><stop offset="0" stop-color="#1a6dff"/><stop offset="1" stop-color="#c822ff"/></linearGradient><path fill="url(#my3~0alKn8cYVsc_VJBgHm)" d="M19 38H33V40H19z"/></svg>