<svg xmlns="http://www.w3.org/2000/svg"  viewBox="0 0 64 64" width="512px" height="512px"><linearGradient id="XhCE85aMTRe3S4z0sBtnka" x1="37" x2="37" y1="5.833" y2="58.652" gradientUnits="userSpaceOnUse" spreadMethod="reflect"><stop offset="0" stop-color="#1a6dff"/><stop offset="1" stop-color="#c822ff"/></linearGradient><path fill="url(#XhCE85aMTRe3S4z0sBtnka)" d="M33,26h11v-2H33c-0.552,0-1-0.448-1-0.999V21h-2v2.001C30,24.655,31.346,26,33,26z"/><linearGradient id="XhCE85aMTRe3S4z0sBtnkb" x1="32" x2="32" y1="5.834" y2="58.652" gradientUnits="userSpaceOnUse" spreadMethod="reflect"><stop offset="0" stop-color="#1a6dff"/><stop offset="1" stop-color="#c822ff"/></linearGradient><path fill="url(#XhCE85aMTRe3S4z0sBtnkb)" d="M48,43.997V37h-0.031c1.225-1,2.031-2.359,2.031-4s-0.806-3-2.031-4H48v-2 c0-5.039-2.5-9.535-6-12.47V9.109c0-1.145-0.578-2.161-1.546-2.717c-0.919-0.528-2.015-0.523-2.932,0.013l-3.604,2.107 C33.346,8.197,32.698,8.001,32,8.001c-0.698,0-1.346,0.196-1.918,0.512l-3.604-2.107c-0.916-0.534-2.012-0.539-2.932-0.013 C22.578,6.948,22,7.964,22,9.109v5.421c-4,2.935-6,7.431-6,12.47v1.939c-2,0.908-1.999,2.385-1.999,4.06c0,1.641,0.806,3,2.031,4H16 v6.997c-3,3.42-4,7.594-4,12.003v2h40v-2C52,51.591,50.5,47.417,48,43.997z M46,41.715c-0.5-0.373-0.785-0.727-1.198-1.071 c0.382-0.863,0.682-1.769,0.884-2.713C45.79,37.916,46,37.92,46,37.899V41.715z M20,35v-5h1c2.548,0,4.775-1.373,6-3.413 C28.225,28.627,30.452,30,33,30h11v5c0,6.617-5.383,12-12,12S20,41.617,20,35z M45.958,35.829C45.974,35.553,46,35.28,46,35v-4.816 c1,0.415,2,1.514,2,2.816C48,34.318,47.141,35.427,45.958,35.829z M38.532,8.132c0.401-0.237,0.753-0.104,0.926-0.004 C39.798,8.322,40,8.689,40,9.109v4.057c-1.5-0.728-2.612-1.284-4.049-1.651c-0.07-0.566-0.252-1.094-0.533-1.562L38.532,8.132z M32,10.001c0.779,0,1.449,0.453,1.779,1.105c-0.585-0.065-1.177-0.105-1.779-0.105c-0.602,0-1.194,0.04-1.779,0.105 C30.551,10.454,31.221,10.001,32,10.001z M24,9.109c0-0.42,0.202-0.787,0.542-0.981c0.173-0.101,0.524-0.233,0.926,0.004 l3.115,1.821c-0.282,0.468-0.464,0.996-0.533,1.562C26.612,11.882,25,12.438,24,13.166V9.109z M32,13.001c7.719,0,14,6.28,14,13.999 V28h-1h-1H33c-2.757,0-5-2.243-5-4.999V21h-2v2.001C26,25.757,23.757,28,21,28h-1h-2v-1c0-0.337,0.028,0,0.051-1H21 c1.654,0,3-1.345,3-2.999V21h-2v2.001C22,23.552,21.552,24,21,24h-2.668C19.71,18,25.311,13.001,32,13.001z M18,30.147V35 c0,0.28,0.026,0.553,0.042,0.829c-1.183-0.402-2.042-1.511-2.042-2.829C16.001,31.654,16,30.525,18,30.147z M18.314,37.931 c0.202,0.944,0.502,1.85,0.884,2.713C18.785,40.988,18,41.342,18,41.715v-3.816C18,37.92,18.211,37.916,18.314,37.931z M46,56v-2h-2 v2h-9.184c-0.414-1-1.514-2-2.816-2s-2.402,1-2.816,2H20v-2h-2v2h-3.999c0-5,2.233-10.136,6.162-13.56 C22.643,46.374,27.016,49,32,49s9.357-2.626,11.838-6.56C47.766,45.864,49.999,51,49.999,56H46z"/><linearGradient id="XhCE85aMTRe3S4z0sBtnkc" x1="37" x2="37" y1="32.667" y2="37.088" gradientUnits="userSpaceOnUse" spreadMethod="reflect"><stop offset="0" stop-color="#6dc7ff"/><stop offset="1" stop-color="#e6abff"/></linearGradient><path fill="url(#XhCE85aMTRe3S4z0sBtnkc)" d="M37 33A2 2 0 1 0 37 37A2 2 0 1 0 37 33Z"/><linearGradient id="XhCE85aMTRe3S4z0sBtnkd" x1="27" x2="27" y1="32.667" y2="37.088" gradientUnits="userSpaceOnUse" spreadMethod="reflect"><stop offset="0" stop-color="#6dc7ff"/><stop offset="1" stop-color="#e6abff"/></linearGradient><path fill="url(#XhCE85aMTRe3S4z0sBtnkd)" d="M27 33A2 2 0 1 0 27 37A2 2 0 1 0 27 33Z"/><linearGradient id="XhCE85aMTRe3S4z0sBtnke" x1="32" x2="32" y1="38.667" y2="43.586" gradientUnits="userSpaceOnUse" spreadMethod="reflect"><stop offset="0" stop-color="#6dc7ff"/><stop offset="1" stop-color="#e6abff"/></linearGradient><path fill="url(#XhCE85aMTRe3S4z0sBtnke)" d="M29,40c0,1.657,1.343,3,3,3c1.657,0,3-1.343,3-3v-1h-6V40z"/></svg>