<svg xmlns="http://www.w3.org/2000/svg"  viewBox="0 0 64 64" width="512px" height="512px"><linearGradient id="_qYsnG_ZHOeZB8uCTkswFa" x1="21" x2="21" y1="39.25" y2="43.125" gradientUnits="userSpaceOnUse" spreadMethod="reflect"><stop offset="0" stop-color="#6dc7ff"/><stop offset="1" stop-color="#e6abff"/></linearGradient><path fill="url(#_qYsnG_ZHOeZB8uCTkswFa)" d="M18 40H24V42H18z"/><linearGradient id="_qYsnG_ZHOeZB8uCTkswFb" x1="43" x2="43" y1="39.25" y2="43.125" gradientUnits="userSpaceOnUse" spreadMethod="reflect"><stop offset="0" stop-color="#6dc7ff"/><stop offset="1" stop-color="#e6abff"/></linearGradient><path fill="url(#_qYsnG_ZHOeZB8uCTkswFb)" d="M40 40H46V42H40z"/><linearGradient id="_qYsnG_ZHOeZB8uCTkswFc" x1="32" x2="32" y1="9.125" y2="13.174" gradientUnits="userSpaceOnUse" spreadMethod="reflect"><stop offset="0" stop-color="#6dc7ff"/><stop offset="1" stop-color="#e6abff"/></linearGradient><path fill="url(#_qYsnG_ZHOeZB8uCTkswFc)" d="M28 10H36V12H28z"/><linearGradient id="_qYsnG_ZHOeZB8uCTkswFd" x1="32" x2="32" y1="7.667" y2="57" gradientUnits="userSpaceOnUse" spreadMethod="reflect"><stop offset="0" stop-color="#1a6dff"/><stop offset="1" stop-color="#c822ff"/></linearGradient><path fill="url(#_qYsnG_ZHOeZB8uCTkswFd)" d="M58,27c0-3.86-3.141-7-7-7h-3v-1c0-1.103-0.897-2-2-2h-2v-4c0-1.654-1.346-3-3-3h-3V8H26v2h-3 c-1.654,0-3,1.346-3,3v4h-2c-1.103,0-2,0.897-2,2v1h-3c-3.859,0-7,3.14-7,7v11h2v13c0,2.757,2.243,5,5,5h38c2.757,0,5-2.243,5-5V38 h2V27z M46,20h-6v-1h6V20z M28,10h8v1c0,0.551-0.448,1-1,1h-6c-0.552,0-1-0.449-1-1V10z M22,13c0-0.552,0.448-1,1-1h3.184 c0.414,1.162,1.514,2,2.816,2h6c1.302,0,2.402-0.838,2.816-2H41c0.552,0,1,0.448,1,1v4h-2c-1.103,0-2,0.897-2,2v1H26v-1 c0-1.103-0.897-2-2-2h-2V13z M18,19h6v1h-6V19z M54,51c0,1.654-1.346,3-3,3H13c-1.654,0-3-1.346-3-3V38h6v4c0,1.103,0.897,2,2,2h6 c1.103,0,2-0.897,2-2v-4h12v4c0,1.103,0.897,2,2,2h6c1.103,0,2-0.897,2-2v-4h6V51z M18,40h6v2h-6V40z M24,38h-6v-4h6V38z M40,40h6v2 h-6V40z M46,38h-6v-4h6V38z M56,36h-8v-2c0-1.103-0.897-2-2-2h-6c-1.103,0-2,0.897-2,2v2H26v-2c0-1.103-0.897-2-2-2h-6 c-1.103,0-2,0.897-2,2v2H8v-9c0-2.757,2.243-5,5-5h38c2.757,0,5,2.243,5,5V36z"/><linearGradient id="_qYsnG_ZHOeZB8uCTkswFe" x1="32" x2="32" y1="7.667" y2="57" gradientUnits="userSpaceOnUse" spreadMethod="reflect"><stop offset="0" stop-color="#1a6dff"/><stop offset="1" stop-color="#c822ff"/></linearGradient><path fill="url(#_qYsnG_ZHOeZB8uCTkswFe)" d="M16 50H48V52H16z"/></svg>